<?xml version="1.0" encoding="UTF-8"?>
<svg xmlns="http://www.w3.org/2000/svg" xmlns:xlink="http://www.w3.org/1999/xlink" width="32px" height="32px" viewBox="0 0 32 32" version="1.1">
<g id="surface1">
<path style=" stroke:none;fill-rule:nonzero;fill:rgb(72.156863%,79.215686%,26.27451%);fill-opacity:1;" d="M 16.921875 3.238281 L 20.878906 11.238281 L 29.71875 12.558594 L 23.320312 18.761719 L 24.839844 27.601562 L 16.921875 23.441406 L 9 27.601562 L 10.519531 18.761719 L 4.121094 12.558594 L 12.960938 11.238281 Z M 16.921875 3.238281 "/>
<path style=" stroke:none;fill-rule:nonzero;fill:rgb(13.72549%,10.980392%,10.980392%);fill-opacity:1;" d="M 24.839844 28 C 24.761719 28 24.71875 28 24.640625 27.960938 L 16.921875 23.878906 L 9.199219 27.960938 C 9.078125 28.039062 8.921875 28 8.761719 27.921875 C 8.640625 27.839844 8.558594 27.679688 8.601562 27.519531 L 10.078125 18.921875 L 3.839844 12.839844 C 3.71875 12.71875 3.679688 12.558594 3.71875 12.441406 C 3.761719 12.320312 3.878906 12.199219 4.039062 12.160156 L 12.679688 10.921875 L 16.558594 3.078125 C 16.679688 2.800781 17.160156 2.800781 17.28125 3.078125 L 21.160156 10.921875 L 29.800781 12.160156 C 29.960938 12.199219 30.078125 12.28125 30.121094 12.441406 C 30.160156 12.601562 30.121094 12.761719 30 12.839844 L 23.761719 18.921875 L 25.238281 27.519531 C 25.28125 27.679688 25.199219 27.839844 25.078125 27.921875 C 25 27.960938 24.921875 28 24.839844 28 Z M 16.921875 23.039062 C 17 23.039062 17.039062 23.039062 17.121094 23.078125 L 24.320312 26.878906 L 22.960938 18.878906 C 22.921875 18.761719 23 18.601562 23.078125 18.519531 L 28.878906 12.839844 L 20.839844 11.679688 C 20.71875 11.679688 20.601562 11.558594 20.519531 11.480469 L 16.921875 4.199219 L 13.320312 11.480469 C 13.28125 11.601562 13.160156 11.679688 13 11.679688 L 4.960938 12.839844 L 10.800781 18.480469 C 10.878906 18.558594 10.921875 18.71875 10.921875 18.839844 L 9.558594 26.839844 L 16.761719 23.039062 Z M 16.921875 23.039062 "/>
</g>
</svg>
